PsfTest-Bold.ufo
<glyph name="ExclamationMrk" format="2">
  <advance width="780"/>
  <unicode hex="0021"/>
  <outline>
    <contour>
      <point x="530" y="500" type="line"/>
      <point x="536" y="790"/>
      <point x="531" y="1076"/>
      <point x="570" y="1510" type="curve"/>
      <point x="235" y="1510" type="line"/>
      <point x="273" y="1076"/>
      <point x="268" y="790"/>
      <point x="275" y="500" type="curve"/>
    </contour>
    <contour>
      <point x="230" y="150" type="curve" smooth="yes"/>
      <point x="230" y="46"/>
      <point x="304" y="-25"/>
      <point x="405" y="-25" type="curve" smooth="yes"/>
      <point x="507" y="-25"/>
      <point x="580" y="46"/>
      <point x="580" y="150" type="curve" smooth="yes"/>
      <point x="580" y="252"/>
      <point x="507" y="325"/>
      <point x="405" y="325" type="curve" smooth="yes"/>
      <point x="304" y="325"/>
      <point x="230" y="252"/>
    </contour>
  </outline>
</glyph>
<glyph name="QuotMrk" format="2">
  <advance width="1085"/>
  <unicode hex="0022"/>
  <outline>
    <contour>
      <point x="450" y="1045" type="line"/>
      <point x="455" y="1186"/>
      <point x="456" y="1339"/>
      <point x="485" y="1585" type="curve"/>
      <point x="240" y="1585" type="line"/>
      <point x="271" y="1339"/>
      <point x="271" y="1186"/>
      <point x="275" y="1045" type="curve"/>
    </contour>
    <contour>
      <point x="810" y="1045" type="line"/>
      <point x="815" y="1186"/>
      <point x="816" y="1339"/>
      <point x="845" y="1585" type="curve"/>
      <point x="600" y="1585" type="line"/>
      <point x="631" y="1339"/>
      <point x="631" y="1186"/>
      <point x="635" y="1045" type="curve"/>
    </contour>
  </outline>
</glyph>
<glyph name="LftParen" format="2">
  <advance width="860"/>
  <unicode hex="0028"/>
  <outline>
    <contour>
      <point x="555" y="1640" type="line"/>
      <point x="290" y="1444"/>
      <point x="115" y="1062"/>
      <point x="115" y="625" type="curve" smooth="yes"/>
      <point x="115" y="218"/>
      <point x="260" y="-125"/>
      <point x="535" y="-410" type="curve"/>
      <point x="686" y="-240" type="line"/>
      <point x="462" y="11"/>
      <point x="376" y="335"/>
      <point x="376" y="635" type="curve" smooth="yes"/>
      <point x="376" y="938"/>
      <point x="466" y="1261"/>
      <point x="676" y="1455" type="curve"/>
    </contour>
  </outline>
</glyph>
<glyph name="RtParen" format="2">
  <advance width="860"/>
  <unicode hex="0029"/>
  <outline>
    <contour>
      <point x="185" y="1455" type="line"/>
      <point x="395" y="1261"/>
      <point x="485" y="938"/>
      <point x="485" y="635" type="curve" smooth="yes"/>
      <point x="485" y="335"/>
      <point x="399" y="11"/>
      <point x="175" y="-240" type="curve"/>
      <point x="326" y="-410" type="line"/>
      <point x="601" y="-125"/>
      <point x="746" y="218"/>
      <point x="746" y="625" type="curve" smooth="yes"/>
      <point x="746" y="1062"/>
      <point x="571" y="1444"/>
      <point x="306" y="1640" type="curve"/>
    </contour>
  </outline>
</glyph>
<glyph name="DigitSeven" format="2">
  <advance width="1200"/>
  <unicode hex="0037"/>
  <anchor x="600" y="-100" name="L"/>
  <anchor x="600" y="1530" name="U"/>
  <outline>
    <contour>
      <point x="520" y="0" type="line"/>
      <point x="649" y="459"/>
      <point x="834" y="855"/>
      <point x="1130" y="1260" type="curve"/>
      <point x="1130" y="1460" type="line"/>
      <point x="100" y="1460" type="line"/>
      <point x="100" y="1195" type="line"/>
      <point x="176" y="1211"/>
      <point x="292" y="1215"/>
      <point x="480" y="1215" type="curve" smooth="yes"/>
      <point x="800" y="1215" type="line"/>
      <point x="542" y="842"/>
      <point x="409" y="566"/>
      <point x="235" y="0" type="curve"/>
    </contour>
  </outline>
</glyph>
<glyph name="DigitNine" format="2">
  <advance width="1200"/>
  <unicode hex="0039"/>
  <anchor x="600" y="-100" name="L"/>
  <anchor x="600" y="1530" name="U"/>
  <outline>
    <contour>
      <point x="154" y="65" type="line"/>
      <point x="248" y="5"/>
      <point x="364" y="-25"/>
      <point x="492" y="-25" type="curve" smooth="yes"/>
      <point x="967" y="-25"/>
      <point x="1135" y="411"/>
      <point x="1135" y="780" type="curve" smooth="yes"/>
      <point x="1135" y="1150"/>
      <point x="977" y="1485"/>
      <point x="589" y="1485" type="curve" smooth="yes"/>
      <point x="310" y="1485"/>
      <point x="70" y="1300"/>
      <point x="70" y="1002" type="curve" smooth="yes"/>
      <point x="70" y="763"/>
      <point x="272" y="576"/>
      <point x="550" y="576" type="curve" smooth="yes"/>
      <point x="741" y="576"/>
      <point x="913" y="707"/>
      <point x="1010" y="868" type="curve"/>
      <point x="939" y="991" type="line"/>
      <point x="865" y="877"/>
      <point x="729" y="790"/>
      <point x="574" y="790" type="curve" smooth="yes"/>
      <point x="425" y="790"/>
      <point x="326" y="890"/>
      <point x="326" y="1036" type="curve" smooth="yes"/>
      <point x="326" y="1153"/>
      <point x="425" y="1250"/>
      <point x="573" y="1250" type="curve" smooth="yes"/>
      <point x="773" y="1250"/>
      <point x="870" y="1102"/>
      <point x="870" y="813" type="curve" smooth="yes"/>
      <point x="870" y="326"/>
      <point x="699" y="210"/>
      <point x="502" y="210" type="curve" smooth="yes"/>
      <point x="406" y="210"/>
      <point x="294" y="234"/>
      <point x="208" y="320" type="curve"/>
    </contour>
  </outline>
</glyph>
<glyph name="Colon" format="2">
  <advance width="710"/>
  <unicode hex="003A"/>
  <outline>
    <contour>
      <point x="200" y="150" type="curve" smooth="yes"/>
      <point x="200" y="46"/>
      <point x="274" y="-25"/>
      <point x="375" y="-25" type="curve" smooth="yes"/>
      <point x="477" y="-25"/>
      <point x="550" y="46"/>
      <point x="550" y="150" type="curve" smooth="yes"/>
      <point x="550" y="252"/>
      <point x="477" y="325"/>
      <point x="375" y="325" type="curve" smooth="yes"/>
      <point x="274" y="325"/>
      <point x="200" y="252"/>
    </contour>
    <contour>
      <point x="200" y="750" type="curve" smooth="yes"/>
      <point x="200" y="646"/>
      <point x="274" y="575"/>
      <point x="375" y="575" type="curve" smooth="yes"/>
      <point x="477" y="575"/>
      <point x="550" y="646"/>
      <point x="550" y="750" type="curve" smooth="yes"/>
      <point x="550" y="852"/>
      <point x="477" y="925"/>
      <point x="375" y="925" type="curve" smooth="yes"/>
      <point x="274" y="925"/>
      <point x="200" y="852"/>
    </contour>
  </outline>
</glyph>
<glyph name="LtnCapD" format="2">
  <advance width="1485"/>
  <unicode hex="0044"/>
  <anchor x="800" y="-100" name="L"/>
  <anchor x="800" y="1530" name="U"/>
  <outline>
    <contour>
      <point x="165" y="455" type="line"/>
      <point x="164" y="257"/>
      <point x="165" y="80"/>
      <point x="150" y="0" type="curve"/>
      <point x="150" y="0"/>
      <point x="474" y="-10"/>
      <point x="609" y="-10" type="curve" smooth="yes"/>
      <point x="919" y="-10"/>
      <point x="1370" y="145"/>
      <point x="1370" y="740" type="curve" smooth="yes"/>
      <point x="1370" y="1374"/>
      <point x="906" y="1470"/>
      <point x="630" y="1470" type="curve" smooth="yes"/>
      <point x="487" y="1470"/>
      <point x="239" y="1466"/>
      <point x="150" y="1460" type="curve"/>
      <point x="165" y="1380"/>
      <point x="165" y="1196"/>
      <point x="165" y="1000" type="curve" smooth="yes"/>
    </contour>
    <contour>
      <point x="450" y="1241" type="line"/>
      <point x="492" y="1243"/>
      <point x="582" y="1246"/>
      <point x="637" y="1246" type="curve" smooth="yes"/>
      <point x="897" y="1246"/>
      <point x="1078" y="1118"/>
      <point x="1078" y="720" type="curve" smooth="yes"/>
      <point x="1078" y="357"/>
      <point x="856" y="221"/>
      <point x="633" y="221" type="curve" smooth="yes"/>
      <point x="554" y="221"/>
      <point x="489" y="227"/>
      <point x="450" y="231" type="curve"/>
    </contour>
  </outline>
</glyph>
<glyph name="LtnCapE" format="2">
  <advance width="1212"/>
  <unicode hex="0045"/>
  <anchor x="610" y="0" name="H"/>
  <anchor x="610" y="-100" name="L"/>
  <anchor x="1004" y="0" name="O"/>
  <anchor x="1247" y="1200" name="R"/>
  <anchor x="610" y="1530" name="U"/>
  <outline>
    <contour>
      <point x="450" y="875" type="line"/>
      <point x="450" y="1230" type="line"/>
      <point x="1072" y="1230" type="line"/>
      <point x="1072" y="1460" type="line"/>
      <point x="150" y="1460" type="line"/>
      <point x="165" y="1380"/>
      <point x="165" y="1222"/>
      <point x="165" y="1025" type="curve" smooth="yes"/>
      <point x="165" y="435" type="line" smooth="yes"/>
      <point x="165" y="238"/>
      <point x="165" y="80"/>
      <point x="150" y="0" type="curve"/>
      <point x="1102" y="0" type="line"/>
      <point x="1102" y="245" type="line"/>
      <point x="1024" y="231"/>
      <point x="899" y="230"/>
      <point x="708" y="230" type="curve" smooth="yes"/>
      <point x="450" y="230" type="line"/>
      <point x="450" y="650" type="line"/>
      <point x="997" y="650" type="line"/>
      <point x="997" y="875" type="line"/>
    </contour>
  </outline>
</glyph>
<glyph name="LtnCapH" format="2">
  <advance width="1515"/>
  <unicode hex="0048"/>
  <anchor x="305" y="0" name="H"/>
  <anchor x="745" y="-100" name="L"/>
  <anchor x="745" y="1530" name="U"/>
  <outline>
    <contour>
      <point x="1040" y="1460" type="line"/>
      <point x="1040" y="860" type="line"/>
      <point x="450" y="860" type="line"/>
      <point x="450" y="1460" type="line"/>
      <point x="150" y="1460" type="line"/>
      <point x="165" y="1380"/>
      <point x="165" y="1227"/>
      <point x="165" y="1030" type="curve" smooth="yes"/>
      <point x="165" y="430" type="line" smooth="yes"/>
      <point x="165" y="233"/>
      <point x="165" y="80"/>
      <point x="150" y="0" type="curve"/>
      <point x="150" y="0"/>
      <point x="450" y="0"/>
      <point x="450" y="0" type="curve"/>
      <point x="450" y="635" type="line"/>
      <point x="1040" y="635" type="line"/>
      <point x="1040" y="0" type="line"/>
      <point x="1040" y="0"/>
      <point x="1340" y="0"/>
      <point x="1340" y="0" type="curve"/>
      <point x="1325" y="80"/>
      <point x="1325" y="233"/>
      <point x="1325" y="430" type="curve" smooth="yes"/>
      <point x="1325" y="1030" type="line" smooth="yes"/>
      <point x="1325" y="1227"/>
      <point x="1325" y="1380"/>
      <point x="1340" y="1460" type="curve"/>
    </contour>
  </outline>
</glyph>
<glyph name="LtnCapO" format="2">
  <advance width="1500"/>
  <unicode hex="004F"/>
  <anchor x="740" y="0" name="H"/>
  <anchor x="740" y="-100" name="L"/>
  <anchor x="976" y="0" name="O"/>
  <anchor x="1480" y="1200" name="R"/>
  <anchor x="740" y="1530" name="U"/>
  <outline>
    <contour>
      <point x="1100" y="715" type="curve" smooth="yes"/>
      <point x="1100" y="404"/>
      <point x="940" y="220"/>
      <point x="740" y="220" type="curve" smooth="yes"/>
      <point x="524" y="220"/>
      <point x="375" y="423"/>
      <point x="375" y="745" type="curve" smooth="yes"/>
      <point x="375" y="1048"/>
      <point x="529" y="1240"/>
      <point x="740" y="1240" type="curve" smooth="yes"/>
      <point x="951" y="1240"/>
      <point x="1100" y="1041"/>
    </contour>
    <contour>
      <point x="1385" y="740" type="curve" smooth="yes"/>
      <point x="1385" y="1219"/>
      <point x="1091" y="1485"/>
      <point x="750" y="1485" type="curve" smooth="yes"/>
      <point x="404" y="1485"/>
      <point x="90" y="1199"/>
      <point x="90" y="720" type="curve" smooth="yes"/>
      <point x="90" y="241"/>
      <point x="385" y="-25"/>
      <point x="730" y="-25" type="curve" smooth="yes"/>
      <point x="1072" y="-25"/>
      <point x="1385" y="260"/>
    </contour>
  </outline>
</glyph>
<glyph name="LtnCapP" format="2">
  <advance width="1275"/>
  <unicode hex="0050"/>
  <anchor x="685" y="-100" name="L"/>
  <anchor x="685" y="1530" name="U"/>
  <outline>
    <contour>
      <point x="450" y="523" type="line"/>
      <point x="515" y="516"/>
      <point x="575" y="513"/>
      <point x="648" y="513" type="curve" smooth="yes"/>
      <point x="977" y="513"/>
      <point x="1200" y="702"/>
      <point x="1200" y="1010" type="curve" smooth="yes"/>
      <point x="1200" y="1316"/>
      <point x="981" y="1470"/>
      <point x="658" y="1470" type="curve" smooth="yes"/>
      <point x="445" y="1470"/>
      <point x="150" y="1460"/>
      <point x="150" y="1460" type="curve"/>
      <point x="165" y="1380"/>
      <point x="165" y="1196"/>
      <point x="165" y="1000" type="curve" smooth="yes"/>
      <point x="165" y="435" type="line" smooth="yes"/>
      <point x="165" y="238"/>
      <point x="165" y="80"/>
      <point x="150" y="0" type="curve"/>
      <point x="465" y="0" type="line"/>
      <point x="451" y="78"/>
      <point x="450" y="237"/>
      <point x="450" y="435" type="curve" smooth="yes"/>
    </contour>
    <contour>
      <point x="450" y="1240" type="line"/>
      <point x="506" y="1243"/>
      <point x="544" y="1245"/>
      <point x="622" y="1245" type="curve" smooth="yes"/>
      <point x="833" y="1245"/>
      <point x="915" y="1145"/>
      <point x="915" y="1000" type="curve" smooth="yes"/>
      <point x="915" y="820"/>
      <point x="811" y="730"/>
      <point x="618" y="730" type="curve" smooth="yes"/>
      <point x="556" y="730"/>
      <point x="493" y="733"/>
      <point x="450" y="740" type="curve"/>
    </contour>
  </outline>
</glyph>
<glyph name="LtnCapR" format="2">
  <advance width="1380"/>
  <unicode hex="0052"/>
  <anchor x="690" y="0" name="H"/>
  <anchor x="690" y="-100" name="L"/>
  <anchor x="660" y="1530" name="U"/>
  <outline>
    <contour>
      <point x="450" y="585" type="line"/>
      <point x="625" y="585" type="line" smooth="yes"/>
      <point x="910" y="585"/>
      <point x="1175" y="723"/>
      <point x="1175" y="1040" type="curve" smooth="yes"/>
      <point x="1175" y="1329"/>
      <point x="961" y="1470"/>
      <point x="650" y="1470" type="curve" smooth="yes"/>
      <point x="416" y="1470"/>
      <point x="150" y="1460"/>
      <point x="150" y="1460" type="curve"/>
      <point x="165" y="1380"/>
      <point x="165" y="1196"/>
      <point x="165" y="1000" type="curve" smooth="yes"/>
      <point x="165" y="435" type="line" smooth="yes"/>
      <point x="165" y="238"/>
      <point x="165" y="80"/>
      <point x="150" y="0" type="curve"/>
      <point x="465" y="0" type="line"/>
      <point x="451" y="78"/>
      <point x="450" y="238"/>
      <point x="450" y="435" type="curve" smooth="yes"/>
    </contour>
    <contour>
      <point x="450" y="1240" type="line"/>
      <point x="503" y="1243"/>
      <point x="537" y="1245"/>
      <point x="615" y="1245" type="curve" smooth="yes"/>
      <point x="792" y="1245"/>
      <point x="890" y="1186"/>
      <point x="890" y="1035" type="curve" smooth="yes"/>
      <point x="890" y="859"/>
      <point x="780" y="800"/>
      <point x="605" y="800" type="curve" smooth="yes"/>
      <point x="450" y="800" type="line"/>
    </contour>
    <contour>
      <point x="556" y="635" type="line"/>
      <point x="975" y="0" type="line"/>
      <point x="1330" y="0" type="line"/>
      <point x="1263" y="73"/>
      <point x="827" y="687"/>
      <point x="827" y="687" type="curve"/>
    </contour>
  </outline>
</glyph>
<glyph name="LtnCapS" format="2">
  <advance width="1243"/>
  <unicode hex="0053"/>
  <anchor x="616" y="0" name="H"/>
  <anchor x="616" y="-100" name="L"/>
  <anchor x="616" y="1530" name="U"/>
  <outline>
    <contour>
      <point x="1075" y="1395" type="line"/>
      <point x="932" y="1458"/>
      <point x="810" y="1485"/>
      <point x="640" y="1485" type="curve" smooth="yes"/>
      <point x="280" y="1485"/>
      <point x="130" y="1239"/>
      <point x="130" y="1060" type="curve" smooth="yes"/>
      <point x="130" y="882"/>
      <point x="196" y="754"/>
      <point x="510" y="655" type="curve" smooth="yes"/>
      <point x="800" y="563"/>
      <point x="851" y="504"/>
      <point x="851" y="420" type="curve" smooth="yes"/>
      <point x="851" y="293"/>
      <point x="730" y="220"/>
      <point x="600" y="220" type="curve" smooth="yes"/>
      <point x="439" y="220"/>
      <point x="283" y="270"/>
      <point x="140" y="385" type="curve"/>
      <point x="90" y="110" type="line"/>
      <point x="201" y="31"/>
      <point x="391" y="-25"/>
      <point x="600" y="-25" type="curve" smooth="yes"/>
      <point x="895" y="-25"/>
      <point x="1138" y="169"/>
      <point x="1138" y="455" type="curve" smooth="yes"/>
      <point x="1138" y="666"/>
      <point x="994" y="787"/>
      <point x="727" y="870" type="curve" smooth="yes"/>
      <point x="464" y="952"/>
      <point x="416" y="994"/>
      <point x="416" y="1080" type="curve" smooth="yes"/>
      <point x="416" y="1162"/>
      <point x="506" y="1245"/>
      <point x="630" y="1245" type="curve" smooth="yes"/>
      <point x="771" y="1245"/>
      <point x="873" y="1209"/>
      <point x="1030" y="1130" type="curve"/>
    </contour>
  </outline>
</glyph>
<glyph name="CircumAccent" format="2">
  <advance width="880"/>
  <unicode hex="005E"/>
  <anchor x="440" y="1635" name="U"/>
  <outline>
    <contour>
      <point x="888" y="1200" type="line"/>
      <point x="598" y="1600" type="line"/>
      <point x="298" y="1600" type="line"/>
      <point x="8" y="1200" type="line"/>
      <point x="248" y="1200" type="line"/>
      <point x="448" y="1430" type="line"/>
      <point x="648" y="1200" type="line"/>
    </contour>
  </outline>
</glyph>
<glyph name="GraveAccent" format="2">
  <advance width="640"/>
  <unicode hex="0060"/>
  <anchor x="500" y="1635" name="U"/>
  <outline>
    <contour>
      <point x="0" y="1600" type="line"/>
      <point x="400" y="1200" type="line"/>
      <point x="640" y="1200" type="line"/>
      <point x="350" y="1600" type="line"/>
    </contour>
  </outline>
</glyph>
<glyph name="LtnSmF" format="2">
  <advance width="800"/>
  <unicode hex="0066"/>
  <anchor x="380" y="0" name="H"/>
  <anchor x="400" y="-100" name="L"/>
  <anchor x="600" y="1635" name="U"/>
  <outline>
    <contour>
      <point x="30" y="805" type="line"/>
      <point x="230" y="805" type="line"/>
      <point x="230" y="0" type="line"/>
      <point x="540" y="0" type="line"/>
      <point x="518" y="105"/>
      <point x="510" y="300"/>
      <point x="510" y="494" type="curve" smooth="yes"/>
      <point x="510" y="805" type="line"/>
      <point x="765" y="805" type="line"/>
      <point x="765" y="1005" type="line"/>
      <point x="510" y="1005" type="line"/>
      <point x="510" y="1159" type="line" smooth="yes"/>
      <point x="510" y="1322"/>
      <point x="552" y="1387"/>
      <point x="648" y="1387" type="curve" smooth="yes"/>
      <point x="697" y="1387"/>
      <point x="765" y="1362"/>
      <point x="808" y="1322" type="curve"/>
      <point x="865" y="1550" type="line"/>
      <point x="806" y="1588"/>
      <point x="699" y="1620"/>
      <point x="625" y="1620" type="curve" smooth="yes"/>
      <point x="378" y="1620"/>
      <point x="230" y="1470"/>
      <point x="230" y="1170" type="curve" smooth="yes"/>
      <point x="230" y="1005" type="line"/>
      <point x="30" y="1005" type="line"/>
    </contour>
  </outline>
</glyph>
<glyph name="LtnSmG" format="2">
  <advance width="1170"/>
  <unicode hex="0067"/>
  <anchor x="597" y="-465" name="H"/>
  <anchor x="597" y="-535" name="L"/>
  <anchor x="1187" y="1000" name="R"/>
  <anchor x="567" y="1100" name="U"/>
  <outline>
    <contour>
      <point x="352" y="395" type="line"/>
      <point x="256" y="357"/>
      <point x="202" y="275"/>
      <point x="202" y="215" type="curve" smooth="yes"/>
      <point x="202" y="113"/>
      <point x="280" y="12"/>
      <point x="547" y="-23" type="curve" smooth="yes"/>
      <point x="797" y="-50"/>
      <point x="870" y="-99"/>
      <point x="870" y="-170" type="curve" smooth="yes"/>
      <point x="870" y="-229"/>
      <point x="748" y="-302"/>
      <point x="602" y="-302" type="curve" smooth="yes"/>
      <point x="418" y="-302"/>
      <point x="330" y="-235"/>
      <point x="330" y="-180" type="curve" smooth="yes"/>
      <point x="330" y="-121"/>
      <point x="357" y="-56"/>
      <point x="562" y="20" type="curve"/>
      <point x="554" y="49"/>
      <point x="322" y="75"/>
      <point x="322" y="75" type="curve"/>
      <point x="138" y="2"/>
      <point x="50" y="-89"/>
      <point x="50" y="-200" type="curve" smooth="yes"/>
      <point x="50" y="-409"/>
      <point x="341" y="-505"/>
      <point x="587" y="-505" type="curve" smooth="yes"/>
      <point x="843" y="-505"/>
      <point x="1150" y="-375"/>
      <point x="1150" y="-160" type="curve" smooth="yes"/>
      <point x="1150" y="13"/>
      <point x="1049" y="125"/>
      <point x="752" y="165" type="curve" smooth="yes"/>
      <point x="497" y="191"/>
      <point x="433" y="216"/>
      <point x="433" y="255" type="curve" smooth="yes"/>
      <point x="433" y="285"/>
      <point x="472" y="322"/>
      <point x="588" y="350" type="curve"/>
    </contour>
    <contour>
      <point x="1102" y="1040" type="line"/>
      <point x="1003" y="1033"/>
      <point x="871" y="997"/>
      <point x="782" y="940" type="curve"/>
      <point x="847" y="770" type="line"/>
      <point x="939" y="808"/>
      <point x="1019" y="823"/>
      <point x="1092" y="825" type="curve"/>
    </contour>
    <contour>
      <point x="122" y="670" type="curve" smooth="yes"/>
      <point x="122" y="455"/>
      <point x="316" y="305"/>
      <point x="567" y="305" type="curve" smooth="yes"/>
      <point x="820" y="305"/>
      <point x="1012" y="465"/>
      <point x="1012" y="680" type="curve" smooth="yes"/>
      <point x="1012" y="884"/>
      <point x="820" y="1040"/>
      <point x="567" y="1040" type="curve" smooth="yes"/>
      <point x="316" y="1040"/>
      <point x="122" y="874"/>
    </contour>
    <contour>
      <point x="377" y="680" type="curve" smooth="yes"/>
      <point x="377" y="770"/>
      <point x="457" y="847"/>
      <point x="567" y="847" type="curve" smooth="yes"/>
      <point x="678" y="847"/>
      <point x="757" y="770"/>
      <point x="757" y="680" type="curve" smooth="yes"/>
      <point x="757" y="578"/>
      <point x="678" y="501"/>
      <point x="567" y="501" type="curve" smooth="yes"/>
      <point x="457" y="501"/>
      <point x="377" y="578"/>
    </contour>
  </outline>
</glyph>
<glyph name="LtnSmJ" format="2">
  <advance width="670"/>
  <unicode hex="006A"/>
  <anchor x="140" y="-500" name="L"/>
  <anchor x="355" y="1100" name="U"/>
  <outline>
    <contour>
      <point x="185" y="1385" type="curve" smooth="yes"/>
      <point x="185" y="1281"/>
      <point x="259" y="1210"/>
      <point x="360" y="1210" type="curve" smooth="yes"/>
      <point x="462" y="1210"/>
      <point x="535" y="1281"/>
      <point x="535" y="1385" type="curve" smooth="yes"/>
      <point x="535" y="1487"/>
      <point x="462" y="1560"/>
      <point x="360" y="1560" type="curve" smooth="yes"/>
      <point x="259" y="1560"/>
      <point x="185" y="1487"/>
    </contour>
    <contour>
      <point x="500" y="1020" type="line"/>
      <point x="205" y="1020" type="line"/>
      <point x="218" y="915"/>
      <point x="220" y="725"/>
      <point x="220" y="530" type="curve"/>
      <point x="220" y="20" type="line"/>
      <point x="220" y="-150"/>
      <point x="165" y="-232"/>
      <point x="48" y="-232" type="curve" smooth="yes"/>
      <point x="-20" y="-232"/>
      <point x="-101" y="-195"/>
      <point x="-145" y="-152" type="curve"/>
      <point x="-190" y="-389" type="line"/>
      <point x="-148" y="-421"/>
      <point x="-37" y="-470"/>
      <point x="56" y="-470" type="curve" smooth="yes"/>
      <point x="306" y="-470"/>
      <point x="500" y="-348"/>
      <point x="500" y="25" type="curve" smooth="yes"/>
    </contour>
  </outline>
</glyph>
<glyph name="LtnSmL" format="2">
  <advance width="640"/>
  <unicode hex="006C"/>
  <anchor x="335" y="0" name="H"/>
  <anchor x="335" y="-100" name="L"/>
  <anchor x="660" y="1000" name="R"/>
  <anchor x="320" y="1635" name="U"/>
  <outline>
    <contour>
      <point x="460" y="1600" type="line"/>
      <point x="160" y="1600" type="line"/>
      <point x="173" y="1485"/>
      <point x="180" y="1324"/>
      <point x="180" y="1130" type="curve" smooth="yes"/>
      <point x="180" y="0" type="line"/>
      <point x="480" y="0" type="line"/>
      <point x="467" y="109"/>
      <point x="460" y="346"/>
      <point x="460" y="475" type="curve" smooth="yes"/>
    </contour>
  </outline>
</glyph>
<glyph name="LtnSmN" format="2">
  <advance width="1245"/>
  <unicode hex="006E"/>
  <anchor x="620" y="0" name="H"/>
  <anchor x="620" y="-100" name="L"/>
  <anchor x="620" y="1100" name="U"/>
  <outline>
    <contour>
      <point x="1120" y="0" type="line"/>
      <point x="1120" y="0"/>
      <point x="1120" y="459"/>
      <point x="1120" y="625" type="curve" smooth="yes"/>
      <point x="1120" y="900"/>
      <point x="998" y="1040"/>
      <point x="795" y="1040" type="curve" smooth="yes"/>
      <point x="654" y="1040"/>
      <point x="537" y="980"/>
      <point x="410" y="835" type="curve"/>
      <point x="403" y="881"/>
      <point x="385" y="980"/>
      <point x="370" y="1020" type="curve"/>
      <point x="95" y="1020" type="line"/>
      <point x="117" y="951"/>
      <point x="145" y="811"/>
      <point x="145" y="615" type="curve" smooth="yes"/>
      <point x="145" y="420"/>
      <point x="145" y="0"/>
      <point x="145" y="0" type="curve"/>
      <point x="425" y="0" type="line"/>
      <point x="425" y="580" type="line"/>
      <point x="460" y="683"/>
      <point x="570" y="795"/>
      <point x="685" y="795" type="curve" smooth="yes"/>
      <point x="792" y="795"/>
      <point x="840" y="734"/>
      <point x="840" y="550" type="curve" smooth="yes"/>
      <point x="840" y="413"/>
      <point x="840" y="0"/>
      <point x="840" y="0" type="curve"/>
    </contour>
  </outline>
</glyph>
<glyph name="LtnSmO" format="2">
  <advance width="1160"/>
  <unicode hex="006F"/>
  <anchor x="578" y="0" name="H"/>
  <anchor x="580" y="-100" name="L"/>
  <anchor x="790" y="0" name="O"/>
  <anchor x="1160" y="1000" name="R"/>
  <anchor x="580" y="1100" name="U"/>
  <outline>
    <contour>
      <point x="90" y="507" type="curve" smooth="yes"/>
      <point x="90" y="163"/>
      <point x="288" y="-25"/>
      <point x="570" y="-25" type="curve" smooth="yes"/>
      <point x="840" y="-25"/>
      <point x="1070" y="163"/>
      <point x="1070" y="507" type="curve" smooth="yes"/>
      <point x="1070" y="851"/>
      <point x="873" y="1040"/>
      <point x="590" y="1040" type="curve" smooth="yes"/>
      <point x="320" y="1040"/>
      <point x="90" y="851"/>
    </contour>
    <contour>
      <point x="370" y="507" type="curve" smooth="yes"/>
      <point x="370" y="699"/>
      <point x="451" y="815"/>
      <point x="580" y="815" type="curve" smooth="yes"/>
      <point x="717" y="815"/>
      <point x="790" y="699"/>
      <point x="790" y="507" type="curve" smooth="yes"/>
      <point x="790" y="316"/>
      <point x="709" y="200"/>
      <point x="580" y="200" type="curve" smooth="yes"/>
      <point x="443" y="200"/>
      <point x="370" y="316"/>
    </contour>
  </outline>
</glyph>
<glyph name="LtnSmP" format="2">
  <advance width="1235"/>
  <unicode hex="0070"/>
  <anchor x="290" y="-435" name="H"/>
  <anchor x="640" y="-500" name="L"/>
  <anchor x="1235" y="1000" name="R"/>
  <anchor x="640" y="1100" name="U"/>
  <outline>
    <contour>
      <point x="450" y="-490" type="line"/>
      <point x="433" y="-405"/>
      <point x="425" y="-310"/>
      <point x="425" y="-150" type="curve" smooth="yes"/>
      <point x="425" y="-71"/>
      <point x="425" y="-41"/>
      <point x="425" y="65" type="curve"/>
      <point x="518" y="10"/>
      <point x="594" y="-25"/>
      <point x="699" y="-25" type="curve" smooth="yes"/>
      <point x="945" y="-25"/>
      <point x="1145" y="193"/>
      <point x="1145" y="535" type="curve" smooth="yes"/>
      <point x="1145" y="828"/>
      <point x="996" y="1040"/>
      <point x="773" y="1040" type="curve" smooth="yes"/>
      <point x="628" y="1040"/>
      <point x="502" y="962"/>
      <point x="410" y="850" type="curve"/>
      <point x="401" y="932"/>
      <point x="385" y="990"/>
      <point x="370" y="1020" type="curve"/>
      <point x="95" y="1020" type="line"/>
      <point x="140" y="907"/>
      <point x="145" y="734"/>
      <point x="145" y="485" type="curve" smooth="yes"/>
      <point x="145" y="291"/>
      <point x="145" y="-345"/>
      <point x="145" y="-490" type="curve"/>
    </contour>
    <contour>
      <point x="633" y="206" type="curve" smooth="yes"/>
      <point x="564" y="206"/>
      <point x="527" y="225"/>
      <point x="425" y="300" type="curve"/>
      <point x="425" y="390"/>
      <point x="425" y="507"/>
      <point x="425" y="585" type="curve"/>
      <point x="482" y="726"/>
      <point x="583" y="802"/>
      <point x="672" y="802" type="curve" smooth="yes"/>
      <point x="793" y="802"/>
      <point x="865" y="686"/>
      <point x="865" y="505" type="curve" smooth="yes"/>
      <point x="865" y="320"/>
      <point x="755" y="206"/>
    </contour>
  </outline>
</glyph>
<glyph name="LtnSmQ" format="2">
  <advance width="1210"/>
  <unicode hex="0071"/>
  <anchor x="600" y="-500" name="L"/>
  <anchor x="1210" y="1000" name="R"/>
  <anchor x="600" y="1100" name="U"/>
  <outline>
    <contour>
      <point x="790" y="-490" type="line"/>
      <point x="1095" y="-490" type="line"/>
      <point x="1078" y="-405"/>
      <point x="1070" y="-310"/>
      <point x="1070" y="-150" type="curve" smooth="yes"/>
      <point x="1070" y="-26"/>
      <point x="1070" y="965"/>
      <point x="1070" y="965" type="curve"/>
      <point x="934" y="1001"/>
      <point x="773" y="1040"/>
      <point x="620" y="1040" type="curve" smooth="yes"/>
      <point x="255" y="1040"/>
      <point x="100" y="742"/>
      <point x="100" y="435" type="curve" smooth="yes"/>
      <point x="100" y="117"/>
      <point x="316" y="-25"/>
      <point x="500" y="-25" type="curve" smooth="yes"/>
      <point x="593" y="-25"/>
      <point x="686" y="14"/>
      <point x="790" y="120" type="curve"/>
    </contour>
    <contour>
      <point x="790" y="368" type="line"/>
      <point x="727" y="258"/>
      <point x="650" y="203"/>
      <point x="580" y="203" type="curve" smooth="yes"/>
      <point x="475" y="203"/>
      <point x="380" y="287"/>
      <point x="380" y="485" type="curve" smooth="yes"/>
      <point x="380" y="641"/>
      <point x="456" y="802"/>
      <point x="655" y="802" type="curve" smooth="yes"/>
      <point x="696" y="802"/>
      <point x="749" y="789"/>
      <point x="790" y="770" type="curve"/>
    </contour>
  </outline>
</glyph>
<glyph name="LtnSmT" format="2">
  <advance width="885"/>
  <unicode hex="0074"/>
  <anchor x="530" y="0" name="H"/>
  <anchor x="530" y="-100" name="L"/>
  <anchor x="885" y="1000" name="R"/>
  <anchor x="360" y="1360" name="U"/>
  <outline>
    <contour>
      <point x="220" y="270" type="line"/>
      <point x="220" y="39"/>
      <point x="374" y="-25"/>
      <point x="563" y="-25" type="curve" smooth="yes"/>
      <point x="635" y="-25"/>
      <point x="725" y="-3"/>
      <point x="820" y="57" type="curve"/>
      <point x="820" y="281" type="line"/>
      <point x="741" y="232"/>
      <point x="678" y="206"/>
      <point x="627" y="206" type="curve" smooth="yes"/>
      <point x="537" y="206"/>
      <point x="500" y="235"/>
      <point x="500" y="462" type="curve" smooth="yes"/>
      <point x="500" y="1320" type="line"/>
      <point x="220" y="1320" type="line"/>
    </contour>
    <contour>
      <point x="805" y="805" type="line"/>
      <point x="805" y="1005" type="line"/>
      <point x="30" y="1005" type="line"/>
      <point x="30" y="805" type="line"/>
    </contour>
  </outline>
</glyph>
<glyph name="LtnSmV" format="2">
  <advance width="1104"/>
  <unicode hex="0076"/>
  <anchor x="565" y="0" name="H"/>
  <anchor x="565" y="-100" name="L"/>
  <anchor x="750" y="0" name="O"/>
  <anchor x="565" y="1100" name="U"/>
  <outline>
    <contour>
      <point x="786" y="1020" type="line"/>
      <point x="556" y="290" type="line"/>
      <point x="322" y="1020" type="line"/>
      <point x="10" y="1020" type="line"/>
      <point x="65" y="905"/>
      <point x="133" y="746"/>
      <point x="165" y="665" type="curve" smooth="yes"/>
      <point x="227" y="510"/>
      <point x="430" y="0"/>
      <point x="430" y="0" type="curve"/>
      <point x="674" y="0" type="line"/>
      <point x="674" y="0"/>
      <point x="886" y="536"/>
      <point x="939" y="665" type="curve" smooth="yes"/>
      <point x="972" y="744"/>
      <point x="1037" y="905"/>
      <point x="1094" y="1020" type="curve"/>
    </contour>
  </outline>
</glyph>
<glyph name="LtnSmX" format="2">
  <advance width="1185"/>
  <unicode hex="0078"/>
  <anchor x="960" y="0" name="H"/>
  <anchor x="590" y="-100" name="L"/>
  <anchor x="615" y="1100" name="U"/>
  <outline>
    <contour>
      <point x="815" y="0" type="line"/>
      <point x="1145" y="0" type="line"/>
      <point x="1037" y="129"/>
      <point x="989" y="190"/>
      <point x="930" y="270" type="curve" smooth="yes"/>
      <point x="380" y="1020" type="line"/>
      <point x="50" y="1020" type="line"/>
      <point x="158" y="887"/>
      <point x="192" y="842"/>
      <point x="260" y="750" type="curve" smooth="yes"/>
    </contour>
    <contour>
      <point x="499" y="616" type="line"/>
      <point x="245" y="270" type="line" smooth="yes"/>
      <point x="195" y="201"/>
      <point x="150" y="143"/>
      <point x="40" y="0" type="curve"/>
      <point x="345" y="0" type="line"/>
      <point x="584" y="359" type="line"/>
    </contour>
    <contour>
      <point x="675" y="405" type="line"/>
      <point x="925" y="750" type="line" smooth="yes"/>
      <point x="980" y="826"/>
      <point x="1027" y="886"/>
      <point x="1130" y="1020" type="curve"/>
      <point x="825" y="1020" type="line"/>
      <point x="595" y="668" type="line"/>
    </contour>
  </outline>
</glyph>
<glyph name="VertLine" format="2">
  <advance width="690"/>
  <unicode hex="007C"/>
  <outline>
    <contour>
      <point x="240" y="1600" type="line"/>
      <point x="240" y="-390" type="line"/>
      <point x="450" y="-390" type="line"/>
      <point x="450" y="1600" type="line"/>
    </contour>
  </outline>
</glyph>
<glyph name="Tilde" format="2">
  <advance width="1115"/>
  <unicode hex="007E"/>
  <outline>
    <contour>
      <point x="165" y="345" type="line"/>
      <point x="170" y="394"/>
      <point x="202" y="435"/>
      <point x="280" y="435" type="curve" smooth="yes"/>
      <point x="435" y="435"/>
      <point x="615" y="330"/>
      <point x="825" y="330" type="curve" smooth="yes"/>
      <point x="984" y="330"/>
      <point x="1080" y="512"/>
      <point x="1080" y="640" type="curve"/>
      <point x="935" y="640" type="line"/>
      <point x="928" y="594"/>
      <point x="898" y="540"/>
      <point x="815" y="540" type="curve" smooth="yes"/>
      <point x="599" y="540"/>
      <point x="461" y="645"/>
      <point x="260" y="645" type="curve" smooth="yes"/>
      <point x="104" y="645"/>
      <point x="20" y="467"/>
      <point x="20" y="345" type="curve"/>
    </contour>
  </outline>
</glyph>
<glyph name="CombDiaer" format="2">
  <unicode hex="0308"/>
  <anchor x="-580" y="1585" name="U"/>
  <anchor x="-580" y="1100" name="_U"/>
  <outline>
    <contour>
      <point x="-510" y="1385" type="curve" smooth="yes"/>
      <point x="-510" y="1281"/>
      <point x="-436" y="1210"/>
      <point x="-335" y="1210" type="curve" smooth="yes"/>
      <point x="-233" y="1210"/>
      <point x="-160" y="1281"/>
      <point x="-160" y="1385" type="curve" smooth="yes"/>
      <point x="-160" y="1487"/>
      <point x="-233" y="1560"/>
      <point x="-335" y="1560" type="curve" smooth="yes"/>
      <point x="-436" y="1560"/>
      <point x="-510" y="1487"/>
    </contour>
    <contour>
      <point x="-1000" y="1385" type="curve" smooth="yes"/>
      <point x="-1000" y="1281"/>
      <point x="-926" y="1210"/>
      <point x="-825" y="1210" type="curve" smooth="yes"/>
      <point x="-723" y="1210"/>
      <point x="-650" y="1281"/>
      <point x="-650" y="1385" type="curve" smooth="yes"/>
      <point x="-650" y="1487"/>
      <point x="-723" y="1560"/>
      <point x="-825" y="1560" type="curve" smooth="yes"/>
      <point x="-926" y="1560"/>
      <point x="-1000" y="1487"/>
    </contour>
  </outline>
</glyph>
